<?xml version="1.0" standalone="no"?>
<!DOCTYPE svg PUBLIC "-//W3C//DTD SVG 20010904//EN"
 "http://www.w3.org/TR/2001/REC-SVG-20010904/DTD/svg10.dtd">
<svg version="1.0" xmlns="http://www.w3.org/2000/svg"
 width="745.000000pt" height="335.000000pt" viewBox="0 0 745.000000 335.000000"
 preserveAspectRatio="xMidYMid meet">

<g transform="translate(0.000000,335.000000) scale(0.100000,-0.100000)"
fill="#000000" stroke="none">
<path d="M779 1845 c-57 -18 -115 -79 -125 -130 -16 -89 35 -154 166 -210 102
-44 110 -50 110 -85 0 -37 -25 -55 -76 -55 -36 0 -49 6 -83 39 l-39 38 -51
-27 c-28 -16 -51 -31 -51 -35 0 -23 68 -92 112 -114 83 -41 212 -31 270 21 28
25 58 91 58 130 0 89 -56 148 -186 194 -79 28 -104 56 -84 94 18 34 72 34 122
0 45 -31 50 -31 93 -2 42 27 43 36 9 77 -55 65 -159 92 -245 65z"/>
<path d="M3455 1856 c-5 -2 -21 -7 -35 -10 -32 -7 -88 -53 -106 -88 -16 -31
-18 -95 -4 -132 18 -48 67 -87 147 -118 83 -32 123 -61 123 -89 0 -23 -47 -59
-77 -59 -38 0 -90 26 -108 54 l-17 25 -49 -24 c-27 -14 -49 -29 -49 -34 0 -21
50 -79 95 -109 48 -33 53 -34 130 -30 66 3 87 8 122 31 51 32 72 62 84 118 19
83 -54 173 -178 219 -80 30 -103 46 -103 75 0 51 88 62 140 18 l32 -26 44 24
c24 13 44 29 44 36 0 17 -64 79 -101 98 -29 16 -114 28 -134 21z"/>
<path d="M4980 1760 c0 -49 -2 -90 -5 -90 -2 0 -30 7 -61 15 -146 38 -263 -56
-264 -213 0 -81 28 -142 87 -187 65 -50 180 -60 213 -20 16 19 30 19 30 0 0
-12 14 -15 65 -15 l65 0 0 300 0 300 -65 0 -65 0 0 -90z m-27 -206 c66 -66 34
-176 -55 -190 -67 -11 -128 44 -128 117 0 22 10 41 34 65 29 29 41 34 79 34
34 0 50 -6 70 -26z"/>
<path d="M5770 1550 l0 -301 67 3 66 3 1 110 1 110 113 3 112 3 0 -116 0 -115
64 0 63 0 5 48 c2 26 4 160 4 297 l-1 250 -65 0 -65 0 -3 -117 -3 -118 -109 0
c-98 0 -110 2 -111 18 -1 9 -2 62 -3 117 l-1 100 -67 3 -68 3 0 -301z"/>
<path d="M6880 1550 l0 -300 70 0 c56 0 70 3 70 15 0 19 3 19 42 -5 44 -27
102 -25 164 4 97 45 130 129 109 275 -11 77 -58 125 -141 146 -54 14 -66 14
-110 0 -27 -8 -52 -15 -56 -15 -5 0 -8 41 -8 90 l0 90 -70 0 -70 0 0 -300z
m304 3 c33 -32 42 -65 30 -112 -18 -71 -113 -103 -165 -55 -25 22 -42 79 -34
112 19 79 114 110 169 55z"/>
<path d="M2987 1793 c-4 -3 -7 -28 -7 -55 0 -47 -1 -48 -31 -48 l-30 0 3 -52
c3 -49 5 -53 31 -56 l27 -3 0 -89 c0 -113 15 -181 45 -210 29 -27 87 -41 142
-33 l43 6 0 60 0 60 -30 -6 c-49 -10 -60 10 -60 119 l0 94 45 0 45 0 0 55 0
55 -45 0 -45 0 0 53 0 52 -63 2 c-35 2 -67 0 -70 -4z"/>
<path d="M3840 1745 c0 -54 0 -55 -30 -55 -30 0 -30 -1 -30 -55 0 -54 0 -55
30 -55 l30 0 0 -134 c0 -125 2 -137 23 -161 27 -32 86 -46 152 -37 l50 7 3 59
3 59 -31 -7 c-61 -12 -70 3 -70 114 l0 99 48 3 47 3 0 50 0 50 -47 3 -47 3 -3
52 -3 52 -62 3 -63 3 0 -56z"/>
<path d="M2140 1684 c-65 -17 -105 -52 -133 -114 -23 -50 -26 -136 -7 -185 35
-91 132 -152 223 -142 27 4 57 13 67 22 21 19 30 19 30 0 0 -12 14 -15 65 -15
l65 0 0 220 0 220 -65 0 c-50 0 -65 -3 -65 -14 0 -13 -5 -13 -32 -2 -55 22
-91 25 -148 10z m154 -132 c35 -37 42 -87 19 -132 -22 -43 -57 -62 -102 -56
-128 19 -116 216 14 216 32 0 47 -6 69 -28z"/>
<path d="M1150 1470 l0 -220 65 0 65 0 0 136 0 136 29 29 c23 22 39 29 68 29
78 -1 93 -33 93 -199 l0 -131 65 0 65 0 0 128 c0 104 3 132 17 152 26 39 45
49 85 50 28 0 41 -6 57 -26 19 -24 21 -40 21 -165 l0 -139 71 0 71 0 -4 163
c-3 177 -12 207 -70 250 -62 46 -215 28 -253 -30 l-17 -25 -38 37 c-32 31 -48
39 -89 43 -69 6 -119 -5 -147 -33 l-24 -24 0 29 0 30 -65 0 -65 0 0 -220z"/>
<path d="M2540 1470 l0 -220 64 0 64 0 4 109 c2 92 6 114 24 137 33 44 68 66
118 71 l46 6 0 58 0 59 -40 0 c-55 0 -107 -24 -121 -54 -15 -33 -29 -24 -29
20 l0 34 -65 0 -65 0 0 -220z"/>
<path d="M4132 1528 c3 -129 7 -170 21 -195 50 -93 180 -119 247 -48 31 33 40
32 40 -5 l0 -30 65 0 65 0 0 220 0 220 -65 0 -65 0 0 -125 c0 -124 0 -124 -30
-159 -48 -54 -106 -59 -128 -10 -7 15 -12 79 -12 159 l0 135 -71 0 -71 0 4
-162z"/>
<path d="M5202 1648 c11 -23 29 -65 38 -93 10 -27 44 -103 75 -169 l56 -119
-40 -83 c-23 -46 -41 -86 -41 -89 0 -3 31 -5 69 -5 l69 0 23 63 c20 55 56 135
149 332 40 85 90 197 90 201 0 11 -129 2 -137 -8 -5 -7 -26 -53 -47 -103 -21
-49 -45 -106 -53 -125 l-15 -35 -24 50 c-13 28 -42 89 -64 138 l-39 87 -65 0
-64 0 20 -42z"/>
<path d="M6360 1548 c0 -154 7 -196 43 -249 44 -66 164 -76 218 -18 34 36 39
36 39 -1 l0 -30 70 0 70 0 0 220 0 220 -70 0 -70 0 0 -124 c0 -112 -2 -126
-23 -157 -16 -23 -35 -37 -61 -44 -35 -8 -40 -7 -62 18 -23 27 -24 35 -24 168
l0 139 -65 0 -65 0 0 -142z"/>
</g>
</svg>
