<svg xmlns="http://www.w3.org/2000/svg" width="271" height="271" viewBox="0 0 271 271" version="1.1"><path d="M 122 6.600 C 112.894 8.326, 104.388 12, 109.500 12 C 110.325 12, 111 11.597, 111 11.104 C 111 8.115, 151.865 6.983, 155.350 9.875 C 156.084 10.484, 156.920 10.747, 157.209 10.458 C 158.156 9.510, 172.392 14.692, 177.500 17.844 C 180.250 19.541, 183.878 21.562, 185.562 22.335 C 187.246 23.108, 191.634 26.620, 195.312 30.139 C 201.665 36.216, 202 36.768, 202 41.134 C 202 46.412, 199.684 50.060, 195.137 51.943 C 191.610 53.404, 189.408 52.368, 180.852 45.219 C 177.746 42.624, 172.121 38.995, 168.352 37.155 C 164.584 35.316, 160.810 33.461, 159.967 33.033 C 159.124 32.605, 156.874 31.938, 154.967 31.552 C 153.060 31.167, 150.713 30.629, 149.750 30.358 C 148.787 30.087, 148 30.325, 148 30.887 C 148 31.449, 149.688 32.208, 151.750 32.573 C 155.588 33.253, 159.440 34.689, 166.500 38.074 C 174.615 41.964, 177.270 43.766, 183.439 49.566 C 185.232 51.253, 188.068 53.200, 189.741 53.893 C 192.393 54.991, 193.306 54.885, 196.891 53.056 C 199.151 51.903, 201 50.331, 201 49.563 C 201 48.795, 201.479 48.007, 202.065 47.812 C 204.148 47.117, 204.325 39.597, 202.344 35.944 C 197.350 26.735, 178.682 14.367, 164 10.540 C 160.425 9.609, 156.688 8.412, 155.696 7.881 C 153.774 6.853, 126.200 5.804, 122 6.600 M 97.190 14.030 C 93.719 15.663, 90.457 17, 89.940 17 C 89.423 17, 89 17.382, 89 17.848 C 89 18.315, 87.213 19.502, 85.030 20.487 C 82.846 21.471, 80.301 23.115, 79.375 24.139 C 78.448 25.162, 77.101 26, 76.380 26 C 75.660 26, 74.589 26.900, 74 28 C 73.411 29.100, 72.383 30.025, 71.715 30.055 C 69.069 30.176, 52.935 49.459, 48.753 57.500 C 42.545 69.436, 38 83.482, 38 90.729 C 38 94.035, 39.303 92.844, 39.650 89.222 C 40.100 84.516, 42.799 74.739, 45.404 68.380 C 51.705 52.996, 62.492 38.980, 76 28.624 C 81.694 24.258, 95.325 15.942, 97.348 15.599 C 97.982 15.492, 99.483 14.863, 100.684 14.202 C 101.886 13.541, 103.547 13, 104.375 13 C 105.204 13, 106.160 12.550, 106.500 12 C 107.646 10.146, 103.540 11.041, 97.190 14.030 M 129 30 C 129 30.572, 132.020 31, 136.059 31 C 140.510 31, 142.890 30.631, 142.500 30 C 142.160 29.450, 138.984 29, 135.441 29 C 131.814 29, 129 29.437, 129 30 M 118 30.737 C 116.625 30.993, 115.275 31.511, 115 31.889 C 114.725 32.267, 111.912 33.440, 108.750 34.495 C 105.588 35.551, 103 36.771, 103 37.207 C 103 37.643, 102.414 38, 101.699 38 C 98.146 38, 77 54.996, 77 57.852 C 77 58.483, 76.614 59, 76.142 59 C 74.408 59, 65.454 75.345, 65.871 77.750 C 65.990 78.438, 65.618 79, 65.044 79 C 64.470 79, 64 79.675, 64 80.500 C 64 81.325, 64.450 82, 65 82 C 65.550 82, 66 81.521, 66 80.936 C 66 78.685, 71.387 68.227, 75.570 62.358 C 85.812 47.986, 101.056 37.584, 119.353 32.480 C 122.023 31.736, 124.460 30.873, 124.770 30.563 C 125.399 29.934, 121.825 30.026, 118 30.737 M 114.096 41.714 C 107.984 44.133, 99.530 53.109, 98.521 58.249 C 98.171 60.037, 97.379 62.522, 96.762 63.770 C 95.922 65.470, 95.937 66.337, 96.820 67.220 C 97.727 68.127, 98 67.788, 98 65.759 C 98 64.306, 98.474 62.825, 99.053 62.467 C 99.632 62.110, 99.919 61.295, 99.692 60.658 C 98.233 56.577, 109.515 44.535, 115.864 43.396 C 121.350 42.412, 123.217 41.051, 119 41.109 C 117.075 41.136, 114.868 41.408, 114.096 41.714 M 124 41.933 C 124 42.520, 124.696 43, 125.548 43 C 126.399 43, 128.199 44.191, 129.548 45.646 C 133.091 49.469, 133 56.068, 129.365 58.927 C 127.916 60.067, 125.650 61, 124.330 61 C 121.183 61, 116.991 63.795, 117.033 65.865 C 117.079 68.089, 120.003 71.425, 123.560 73.311 C 127.558 75.430, 132 79.761, 132 81.540 C 132 82.343, 132.450 83, 133 83 C 134.298 83, 134.279 82.866, 132.463 79.226 C 131.618 77.532, 128.546 74.566, 125.637 72.635 C 118.200 67.698, 117.054 66.165, 119.479 64.392 C 120.526 63.626, 122.400 63, 123.644 63 C 132.649 63, 137.041 51.546, 130.705 44.585 C 128.271 41.910, 124 40.221, 124 41.933 M 142.586 44.482 C 139.539 47.441, 139 48.628, 139 52.379 C 139 56.180, 139.491 57.224, 142.535 59.896 C 144.945 62.012, 147.109 63, 149.335 63 C 151.131 63, 153.105 63.505, 153.723 64.123 C 155.415 65.815, 153.408 69.331, 149.852 70.905 C 145.585 72.794, 138.989 79.327, 139.059 81.595 C 139.116 83.443, 139.153 83.444, 140.309 81.642 C 143.222 77.098, 145.073 75.283, 148.661 73.455 C 153.242 71.122, 156 68.321, 156 66.002 C 156 63.311, 152.416 60.687, 149.500 61.245 C 145.452 62.018, 141 57.299, 141 52.235 C 141 46.145, 144.657 43, 151.736 43 C 162.940 43, 172.047 51.806, 173.454 64 C 174.332 71.604, 172.198 75.521, 165 79.516 C 158.821 82.946, 156.512 86.503, 157.512 91.053 C 158.351 94.877, 163.715 100.565, 168.278 102.472 C 172.316 104.159, 176 108.727, 176 112.046 C 176 113.277, 174.613 115.609, 172.917 117.229 C 170.535 119.506, 169.259 120.031, 167.301 119.539 C 158.559 117.345, 156.600 118.274, 156.600 124.616 C 156.600 133.870, 170.622 136.166, 178.593 128.217 C 183.960 122.866, 186.381 116.868, 185.654 110.729 C 185.332 108.012, 184.548 105.161, 183.912 104.394 C 183.276 103.627, 183.073 103, 183.462 103 C 185.056 103, 177.823 95.169, 175.240 94.100 C 173.703 93.463, 171.837 91.968, 171.094 90.779 C 169.871 88.821, 170.016 88.398, 172.622 86.313 C 175.547 83.972, 174.459 83.149, 170.934 85.035 C 169.699 85.696, 169 87.127, 169 88.993 C 169 91.388, 169.791 92.379, 173.382 94.484 C 175.792 95.896, 179.054 98.914, 180.632 101.190 C 183.137 104.805, 183.500 106.235, 183.500 112.491 C 183.500 119.121, 183.244 119.987, 180.050 124.147 C 174.158 131.822, 165.462 133.874, 160.079 128.859 C 158.528 127.414, 157.977 125.893, 158.193 123.658 L 158.500 120.500 165.096 120.827 C 171.441 121.141, 171.794 121.033, 174.346 118 C 179.396 111.999, 177.375 105.544, 169.057 101.111 C 157.785 95.103, 155.826 85.637, 164.999 81.501 C 172.903 77.936, 176.616 71.102, 175.321 62.500 C 174.225 55.217, 169.103 47.583, 163.500 44.879 C 162.400 44.348, 160.375 43.265, 159 42.472 C 157.625 41.679, 154.176 41.023, 151.336 41.015 C 146.782 41.002, 145.748 41.412, 142.586 44.482 M 212 59.969 C 212 60.501, 212.675 60.678, 213.500 60.362 C 214.325 60.045, 215 59.609, 215 59.393 C 215 59.177, 214.325 59, 213.500 59 C 212.675 59, 212 59.436, 212 59.969 M 222.222 61.890 C 225.073 64.394, 227.998 69.251, 229.513 74 C 229.601 74.275, 229.929 75.175, 230.243 76 C 231.243 78.630, 233 89.216, 233 92.608 C 233 94.409, 233.521 96.204, 234.158 96.598 C 237.522 98.677, 231.268 70.436, 227.365 65.921 C 226.614 65.053, 226 63.871, 226 63.294 C 226 61.908, 224.067 60.419, 221.075 59.500 C 218.999 58.862, 219.164 59.205, 222.222 61.890 M 206.937 63.088 C 205.285 65.409, 204.751 67.556, 204.788 71.729 C 204.816 74.783, 205.261 77.556, 205.777 77.891 C 206.852 78.589, 209.576 90.860, 210.463 99 C 210.820 102.284, 210.434 108.077, 209.503 113.379 C 206.822 128.652, 200.833 139.941, 189.730 150.645 C 181.607 158.476, 174.008 163.109, 166.270 164.947 C 162.464 165.851, 160.218 167.126, 158.020 169.630 C 154.995 173.076, 154.229 175, 155.883 175 C 156.369 175, 156.996 174.123, 157.277 173.050 C 157.847 170.870, 163.177 167.239, 167 166.428 C 173.665 165.012, 184.068 158.476, 191.389 151.104 C 202.126 140.292, 208.314 129.242, 210.935 116.201 C 212.234 109.737, 212.334 93.372, 211.098 89.399 C 206.321 74.035, 205.814 71.805, 206.396 68.703 C 206.742 66.859, 207.919 64.390, 209.012 63.217 C 211.199 60.870, 211.484 60, 210.068 60 C 209.556 60, 208.147 61.390, 206.937 63.088 M 78.500 67.516 C 76.850 68.351, 74.375 70.714, 73 72.767 C 70.867 75.952, 70.500 77.643, 70.500 84.287 C 70.500 90.036, 70.882 92.310, 71.960 92.976 C 73.217 93.752, 73.179 94.145, 71.685 95.796 C 69.395 98.326, 66 108.108, 66 112.176 C 66 116.076, 69.125 127, 70.241 127 C 71.194 127, 70.111 121.903, 68.871 120.550 C 68.392 120.028, 68 116.335, 68 112.344 C 68 106.066, 68.408 104.396, 71.024 99.960 C 73.720 95.386, 73.937 94.435, 73.029 91.166 C 71.376 85.214, 71.780 77.874, 73.956 74.304 C 76.683 69.832, 80.358 67.622, 83.681 68.456 C 87.361 69.380, 88.928 71.756, 88.984 76.500 C 89.043 81.571, 89.737 82.583, 93.750 83.454 C 97.772 84.326, 98.028 83.254, 94.122 81.893 C 91.577 81.006, 91.188 80.311, 90.765 75.902 C 90.019 68.140, 84.595 64.432, 78.500 67.516 M 184.805 69.305 C 183.240 70.756, 182.055 73.257, 181.609 76.055 C 181.121 79.112, 180.056 81.197, 178.200 82.732 L 175.500 84.965 178.752 83.884 C 182.721 82.565, 183.315 81.679, 183.429 76.916 C 183.664 67.067, 193.937 66.214, 199.691 75.564 C 200.840 77.431, 200.884 77.433, 200.941 75.618 C 200.974 74.583, 199.393 72.221, 197.429 70.368 C 193.053 66.241, 188.522 65.860, 184.805 69.305 M 98 70.550 C 98 74.079, 101.135 77.826, 106.391 80.578 C 111.696 83.355, 114 86.164, 114 89.853 C 114 92.689, 109.401 98.113, 104.781 100.727 C 97.719 104.722, 95.995 106.831, 96.036 111.424 C 96.060 114.193, 96.833 116.431, 98.445 118.402 C 100.721 121.186, 101.063 121.278, 106.870 120.671 C 113.688 119.959, 114.964 120.887, 114.212 126.011 C 113.870 128.342, 112.965 129.230, 109.638 130.500 C 105.881 131.935, 105.078 131.939, 101.105 130.537 C 93.745 127.940, 89 121.102, 89 113.091 C 89 110.906, 88.481 108.797, 87.847 108.406 C 87.002 107.883, 86.847 109.374, 87.266 114.001 C 88.236 124.691, 94.843 131.991, 104.255 132.771 C 108.942 133.160, 109.983 132.885, 112.796 130.518 C 116.359 127.520, 117.110 122.900, 114.593 119.459 C 113.324 117.722, 112.757 117.650, 108.763 118.718 C 103.211 120.203, 100.149 119.440, 99.381 116.381 C 99.052 115.071, 98.326 114, 97.767 114 C 96.519 114, 97.545 108.253, 99.135 106.338 C 99.752 105.593, 102.452 103.790, 105.133 102.331 C 117.969 95.345, 119.035 84.739, 107.418 79.605 C 103.806 78.008, 100 73.524, 100 70.865 C 100 69.839, 99.550 69, 99 69 C 98.450 69, 98 69.697, 98 70.550 M 201.098 82.500 C 201.131 85.990, 201.268 86.226, 202.175 84.353 C 202.900 82.853, 202.889 81.646, 202.137 80.353 C 201.242 78.811, 201.067 79.172, 201.098 82.500 M 62.501 87.750 C 62.159 90.362, 61.456 93.534, 60.940 94.797 C 59.690 97.852, 59.735 108.718, 61 109.500 C 61.550 109.840, 62.005 111.329, 62.012 112.809 C 62.018 114.289, 62.717 117.975, 63.564 121 C 64.411 124.025, 65.225 126.950, 65.372 127.500 C 66.143 130.378, 70.461 138.206, 72.479 140.383 C 73.750 141.755, 74.621 143.045, 74.415 143.252 C 74.208 143.458, 76.741 146.405, 80.043 149.801 C 85.997 155.923, 97.185 164, 99.712 164 C 100.436 164, 101.809 164.429, 102.764 164.954 C 103.719 165.479, 106.525 166.756, 109 167.791 C 114.485 170.085, 116.522 173.405, 115.567 178.496 C 115.008 181.475, 114.198 182.449, 111.190 183.757 C 108.638 184.867, 108.023 185.479, 109.198 185.744 C 113.761 186.772, 118.535 179.927, 117.359 174.043 C 116.537 169.933, 112.244 166.503, 105.451 164.529 C 98.224 162.428, 87.813 155.626, 81.473 148.863 C 71.747 138.488, 68.033 131.597, 64.570 117.505 C 61.671 105.702, 61.418 99.206, 63.520 90.500 C 65.246 83.353, 65.271 83, 64.061 83 C 63.545 83, 62.843 85.138, 62.501 87.750 M 98 84.525 C 98 84.813, 99.125 85.477, 100.500 86 C 104.724 87.606, 103.248 90.838, 96.783 94.135 C 94.195 95.456, 88.613 101.946, 89.394 102.728 C 89.598 102.932, 92.066 100.857, 94.879 98.118 C 97.691 95.379, 100.894 92.851, 101.996 92.501 C 104.277 91.777, 104.782 87.182, 102.800 85.200 C 101.615 84.015, 98 83.507, 98 84.525 M 138.650 84.787 C 136.572 88.072, 140.952 99.932, 145.896 104.406 C 148.267 106.552, 148.678 109, 146.667 109 C 145.934 109, 143.909 110.774, 142.167 112.941 C 139.378 116.413, 139.014 117.576, 139.116 122.691 C 139.238 128.815, 139.482 128.476, 140.495 120.768 C 141.107 116.112, 143.888 112.215, 148.594 109.418 C 150.272 108.421, 150.042 107.813, 145.675 101.693 C 141.868 96.358, 140.789 93.912, 140.199 89.275 C 139.743 85.692, 139.155 83.988, 138.650 84.787 M 198.630 91.250 C 197.697 94.733, 197.852 95.464, 200.015 97.786 C 201.123 98.975, 202.544 101.198, 203.172 102.724 C 204.107 104.996, 204.393 105.170, 204.744 103.679 C 204.981 102.678, 203.987 100.146, 202.537 98.053 C 200.589 95.242, 200.072 93.562, 200.558 91.624 C 200.937 90.113, 200.796 89, 200.225 89 C 199.680 89, 198.962 90.013, 198.630 91.250 M 132 93.584 C 132 94.456, 129.975 97.746, 127.500 100.897 C 123.252 106.304, 122.014 109, 123.779 109 C 125.675 109, 132 116.397, 132 118.614 C 132 119.926, 132.499 121, 133.108 121 C 135.915 121, 130.825 111.047, 126.961 108.979 C 125.349 108.116, 125.232 107.585, 126.191 105.481 C 126.812 104.116, 127.654 103, 128.062 103 C 128.941 103, 132.502 97.145, 133.461 94.123 C 133.860 92.864, 133.700 92, 133.067 92 C 132.480 92, 132 92.713, 132 93.584 M 88 105.500 C 88 106.325, 88.450 107, 89 107 C 89.550 107, 90 106.325, 90 105.500 C 90 104.675, 89.550 104, 89 104 C 88.450 104, 88 104.675, 88 105.500 M 204 112 C 204 115.824, 204.375 117.886, 205 117.500 C 205.550 117.160, 206 114.685, 206 112 C 206 109.315, 205.550 106.840, 205 106.500 C 204.375 106.114, 204 108.176, 204 112 M 233 112.833 C 233 117.615, 231.006 128.108, 229.803 129.661 C 229.287 130.326, 229.279 131.054, 229.783 131.366 C 231.014 132.127, 234.119 121.775, 234.751 114.805 C 235.113 110.822, 234.920 109, 234.139 109 C 233.485 109, 233 110.633, 233 112.833 M 38 114.191 C 38 120.530, 43.150 138, 45.019 138 C 45.367 138, 44.617 134.963, 43.352 131.250 C 42.087 127.537, 41.040 123.289, 41.026 121.809 C 41.012 120.329, 40.514 118.817, 39.919 118.450 C 39.324 118.082, 39.101 116.733, 39.423 115.452 C 39.744 114.171, 39.556 112.843, 39.004 112.502 C 38.443 112.156, 38 112.901, 38 114.191 M 202.368 124.500 C 201.415 127.525, 200.267 130, 199.817 130 C 199.368 130, 199 130.492, 199 131.093 C 199 132.977, 191.763 141.457, 187.254 144.856 C 183.297 147.839, 177.342 150.560, 172.615 151.545 C 168.598 152.381, 169.739 153.242, 174 152.590 C 179.954 151.679, 188.500 146.787, 193.707 141.308 C 198.521 136.243, 203.669 127.280, 204.593 122.356 C 205.567 117.163, 204.295 118.389, 202.368 124.500 M 70 128.646 C 70 129.002, 71.535 131.590, 73.411 134.396 C 78.837 142.515, 88.453 150.541, 94.109 151.672 C 98.567 152.563, 97.112 150.687, 92.050 149.017 C 89.823 148.281, 88 147.399, 88 147.056 C 88 146.712, 86.562 145.582, 84.804 144.543 C 80.920 142.249, 78.045 139.020, 74.319 132.770 C 71.801 128.545, 70 126.826, 70 128.646 M 131.961 130.750 C 131.894 135.457, 125.943 144.127, 119.950 148.248 C 116.953 150.309, 113.762 151.827, 112.861 151.620 C 111.959 151.414, 110.609 151.633, 109.861 152.107 C 107.793 153.417, 113.021 153.230, 117.101 151.849 C 120.450 150.714, 121.812 149.747, 126.472 145.195 C 130.705 141.060, 135.758 128, 133.125 128 C 132.506 128, 131.982 129.238, 131.961 130.750 M 139 131.140 C 139 132.318, 140.005 135.294, 141.234 137.754 C 144.681 144.656, 157 155.101, 157 151.121 C 157 150.638, 155.630 149.675, 153.955 148.981 C 149.056 146.952, 142.174 138.346, 141.418 133.304 C 140.755 128.883, 139 127.313, 139 131.140 M 227.503 135.989 C 227.142 137.632, 226.431 139.234, 225.923 139.548 C 225.415 139.861, 225 140.991, 225 142.059 C 225 143.127, 224.580 144, 224.067 144 C 223.554 144, 222.818 145.012, 222.430 146.250 C 221.762 148.384, 217.402 155.208, 214.045 159.372 C 212.574 161.199, 201.234 172.384, 197.945 175.253 C 194.924 177.889, 183.147 184, 181.088 184 C 179.939 184, 179 184.450, 179 185 C 179 187.877, 189.955 183.052, 199.500 175.972 C 209.226 168.758, 223.036 151.763, 225.512 143.962 C 225.918 142.684, 227.092 140.257, 228.121 138.569 C 230.152 135.239, 230.537 133, 229.079 133 C 228.573 133, 227.864 134.345, 227.503 135.989 M 45 140.020 C 45 140.581, 46.125 142.822, 47.500 145 C 48.875 147.178, 50 149.213, 50 149.523 C 50 151.109, 62.413 166.574, 66.371 169.919 C 67.401 170.788, 69.201 172.426, 70.371 173.559 C 75.369 178.392, 88.278 186, 91.482 186 C 94.401 186, 92.970 184.217, 89.532 183.572 C 87.625 183.214, 85.479 182.377, 84.764 181.711 C 84.049 181.045, 81.897 179.641, 79.982 178.592 C 70.148 173.203, 55.168 156.810, 49.500 145.234 C 46.719 139.555, 45 137.563, 45 140.020 M 98 152 C 98 152.550, 98.927 153, 100.059 153 C 101.191 153, 101.840 152.550, 101.500 152 C 101.160 151.450, 100.234 151, 99.441 151 C 98.648 151, 98 151.450, 98 152 M 159 152 C 157.835 152.753, 158.128 152.973, 160.309 152.985 C 161.930 152.994, 162.857 152.577, 162.500 152 C 161.733 150.758, 160.921 150.758, 159 152 M 156.693 181.089 C 158.761 184.623, 161.346 186.308, 163.802 185.721 C 165.126 185.404, 164.923 185.076, 162.881 184.232 C 161.441 183.637, 159.351 181.991, 158.237 180.575 C 155.446 177.025, 154.501 177.340, 156.693 181.089 M 101.001 193.785 C 101.002 194.617, 170.559 194.774, 171.389 193.944 C 171.695 193.638, 155.983 193.316, 136.473 193.229 C 116.963 193.141, 101 193.391, 101.001 193.785 M 95.455 196.455 C 91.262 200.647, 92.392 210.245, 97.470 213.573 C 99.759 215.072, 103.921 215.235, 136.765 215.109 L 173.500 214.968 176.750 211.499 C 181.013 206.948, 181.365 200.274, 177.545 196.455 C 174.999 193.908, 173 193.268, 173 195 C 173 195.550, 173.698 196, 174.551 196 C 176.654 196, 178.881 201.771, 178.283 205.671 C 178.015 207.416, 176.681 209.891, 175.319 211.171 L 172.841 213.500 138.671 213.801 C 119.877 213.967, 103.065 213.839, 101.311 213.517 C 94.161 212.205, 91.958 201.724, 97.712 196.391 C 99.131 195.076, 99.756 194, 99.101 194 C 98.445 194, 96.805 195.105, 95.455 196.455 M 100 223.750 C 100 224.576, 171.990 224.343, 172.819 223.515 C 173.102 223.232, 156.833 223, 136.667 223 C 116.500 223, 100 223.338, 100 223.750 M 95.441 225.419 C 93.889 226.555, 93.500 228.054, 93.500 232.910 C 93.500 238.272, 93.826 239.284, 96.296 241.573 C 100.087 245.089, 103.861 246, 114.627 246 L 123.767 246 124.170 252.334 C 124.608 259.215, 127.797 264.838, 131.321 264.945 C 132.714 264.987, 132.302 264.208, 129.571 261.632 C 126.310 258.556, 126 257.782, 126 252.714 C 126 243.753, 126.354 244, 113.528 244 C 103.625 244, 101.950 243.749, 99.615 241.912 C 93.906 237.421, 92.594 229.520, 97.090 226.712 C 99.040 225.494, 99.647 224, 98.191 224 C 97.746 224, 96.509 224.639, 95.441 225.419 M 174.609 225.423 C 174.909 226.205, 175.795 227.091, 176.577 227.391 C 177.537 227.759, 178 229.515, 178 232.782 C 178 236.880, 177.529 238.078, 174.937 240.563 C 171.966 243.411, 171.504 243.515, 159.687 244 L 147.500 244.500 147 251.229 C 146.498 257.981, 145.186 260.677, 141.359 262.819 C 140.346 263.386, 139.811 264.145, 140.172 264.505 C 141.224 265.558, 145.974 261.951, 147.551 258.901 C 148.348 257.360, 149 253.827, 149 251.050 L 149 246 158.351 246 C 169.361 246, 173.524 244.807, 177.209 240.596 C 180.866 236.417, 181.099 229.381, 177.686 226.174 C 175.019 223.669, 173.824 223.377, 174.609 225.423" stroke="none" fill="#e45423" fill-rule="evenodd"/><path d="M 117 9.167 C 113.975 9.748, 111.227 10.657, 110.894 11.188 C 110.560 11.719, 109.660 12.048, 108.894 11.919 C 107.496 11.684, 105.660 12.226, 101 14.247 C 99.625 14.844, 97.982 15.436, 97.348 15.563 C 95.244 15.985, 81.584 24.343, 76 28.624 C 56.444 43.617, 43.904 64.454, 39.366 89.500 C 38.203 95.922, 37.884 111.155, 38.888 112.365 C 39.454 113.047, 39.671 114.542, 39.371 115.689 C 39.071 116.836, 39.315 118.077, 39.913 118.446 C 40.511 118.816, 41 120.169, 41 121.454 C 41 122.738, 41.883 126.649, 42.963 130.145 C 44.043 133.640, 44.904 136.900, 44.878 137.388 C 44.851 137.877, 45.205 138.554, 45.665 138.893 C 46.124 139.232, 48.038 142.432, 49.918 146.004 C 56.259 158.052, 70.326 173.300, 79.982 178.592 C 81.897 179.641, 84.049 181.045, 84.764 181.711 C 85.479 182.377, 87.625 183.214, 89.532 183.572 C 91.439 183.930, 93 184.623, 93 185.111 C 93 185.600, 96.065 186, 99.812 186 C 109.207 186, 114.650 183.383, 115.581 178.419 C 116.521 173.411, 114.452 170.071, 109 167.791 C 106.525 166.756, 103.719 165.479, 102.764 164.954 C 101.809 164.429, 100.436 164, 99.712 164 C 97.185 164, 85.997 155.923, 80.043 149.801 C 76.741 146.405, 74.208 143.458, 74.415 143.252 C 74.621 143.045, 73.750 141.755, 72.479 140.383 C 70.461 138.206, 66.143 130.378, 65.372 127.500 C 65.225 126.950, 64.411 124.025, 63.564 121 C 62.717 117.975, 62.018 114.353, 62.012 112.950 C 62.005 111.548, 61.509 109.909, 60.910 109.310 C 59.079 107.479, 61.811 83.953, 63.942 83.202 C 64.407 83.038, 64.558 82.026, 64.277 80.952 C 63.987 79.844, 64.269 79, 64.927 79 C 65.565 79, 65.990 78.438, 65.871 77.750 C 65.454 75.345, 74.408 59, 76.142 59 C 76.614 59, 77 58.483, 77 57.852 C 77 54.996, 98.146 38, 101.699 38 C 102.414 38, 103 37.643, 103 37.207 C 103 36.771, 105.588 35.551, 108.750 34.495 C 111.912 33.440, 114.804 32.138, 115.175 31.601 C 115.546 31.064, 118.809 30.625, 122.425 30.625 C 126.041 30.625, 129 30.259, 129 29.813 C 129 28.572, 141.783 28.840, 142.559 30.096 C 142.932 30.699, 144.615 30.990, 146.299 30.743 C 149.427 30.284, 155.915 31.346, 159.500 32.905 C 168.216 36.696, 176.078 41.229, 180.852 45.219 C 189.408 52.368, 191.610 53.404, 195.137 51.943 C 199.684 50.060, 202 46.412, 202 41.134 C 202 36.768, 201.665 36.216, 195.312 30.139 C 191.634 26.620, 187.246 23.108, 185.562 22.335 C 183.878 21.562, 180.250 19.541, 177.500 17.844 C 172.392 14.692, 158.156 9.510, 157.209 10.458 C 156.920 10.747, 156.053 10.459, 155.282 9.819 C 153.412 8.267, 124.275 7.771, 117 9.167 M 121 41.902 C 120.175 42.365, 117.864 43.037, 115.864 43.396 C 109.515 44.535, 98.233 56.577, 99.692 60.658 C 99.919 61.295, 99.632 62.110, 99.053 62.467 C 97.712 63.296, 97.666 69, 99 69 C 99.550 69, 100 69.839, 100 70.865 C 100 73.524, 103.806 78.008, 107.418 79.605 C 119.035 84.739, 117.969 95.345, 105.133 102.331 C 102.452 103.790, 99.752 105.593, 99.135 106.338 C 97.545 108.253, 96.519 114, 97.767 114 C 98.326 114, 99.052 115.071, 99.381 116.381 C 100.149 119.440, 103.211 120.203, 108.763 118.718 C 112.757 117.650, 113.324 117.722, 114.593 119.459 C 117.110 122.900, 116.359 127.520, 112.796 130.518 C 109.983 132.885, 108.942 133.160, 104.255 132.771 C 94.843 131.991, 88.236 124.691, 87.266 114.001 C 86.836 109.256, 86.990 107.876, 87.887 108.430 C 88.748 108.962, 88.899 108.447, 88.432 106.584 C 88.012 104.911, 88.195 104, 88.951 104 C 89.593 104, 89.881 103.617, 89.592 103.149 C 88.795 101.860, 93.705 95.706, 96.783 94.135 C 100.502 92.238, 103 89.942, 103 88.418 C 103 86.930, 98.409 84.465, 93.760 83.456 C 89.737 82.583, 89.043 81.573, 88.984 76.500 C 88.867 66.593, 79.493 65.223, 73.956 74.304 C 71.780 77.874, 71.376 85.214, 73.029 91.166 C 73.937 94.435, 73.720 95.386, 71.024 99.960 C 68.408 104.396, 68 106.066, 68 112.344 C 68 116.335, 68.419 120.027, 68.932 120.550 C 69.445 121.072, 70.007 122.850, 70.182 124.500 C 70.357 126.150, 70.740 127.725, 71.033 128 C 71.326 128.275, 73.018 130.750, 74.793 133.500 C 79.205 140.335, 80.962 142.279, 84.750 144.514 C 86.537 145.568, 88 146.784, 88 147.216 C 88 147.647, 88.395 148, 88.878 148 C 89.361 148, 91.498 148.759, 93.628 149.686 C 95.758 150.613, 97.925 151.259, 98.445 151.121 C 98.964 150.983, 100.390 151.406, 101.613 152.061 C 102.915 152.757, 105.219 152.978, 107.169 152.594 C 109.001 152.232, 111.400 151.929, 112.500 151.919 C 113.600 151.909, 116.953 150.236, 119.950 148.201 C 125.944 144.131, 131.894 135.487, 131.961 130.750 C 131.982 129.238, 132.450 128, 133 128 C 133.550 128, 134 126.425, 134 124.500 C 134 122.575, 133.550 121, 133 121 C 132.450 121, 132 119.926, 132 118.614 C 132 116.397, 125.675 109, 123.779 109 C 122.014 109, 123.252 106.304, 127.500 100.897 C 129.975 97.746, 132 94.456, 132 93.584 C 132 92.713, 132.450 92, 133 92 C 133.550 92, 134 89.975, 134 87.500 C 134 85.025, 133.550 83, 133 83 C 132.450 83, 132 82.343, 132 81.540 C 132 79.761, 127.558 75.430, 123.560 73.311 C 120.003 71.425, 117.079 68.089, 117.033 65.865 C 116.991 63.795, 121.183 61, 124.330 61 C 125.650 61, 127.916 60.067, 129.365 58.927 C 133 56.068, 133.091 49.469, 129.548 45.646 C 128.199 44.191, 126.399 43, 125.548 43 C 124.696 43, 124 42.550, 124 42 C 124 40.799, 123.024 40.767, 121 41.902 M 143.636 45.636 C 139.812 49.460, 139.954 55.221, 143.965 58.967 C 146.117 60.977, 147.634 61.602, 149.500 61.245 C 152.416 60.687, 156 63.311, 156 66.002 C 156 68.295, 153.262 71.069, 148.478 73.624 C 146.290 74.792, 143.343 77.427, 141.930 79.480 C 139.572 82.903, 139.427 83.702, 140.175 89.169 C 140.828 93.947, 141.923 96.435, 145.702 101.731 C 150.045 107.817, 150.272 108.421, 148.594 109.418 C 143.879 112.221, 141.108 116.109, 140.506 120.768 C 140.171 123.371, 139.736 126.287, 139.542 127.250 C 139.347 128.213, 139.544 129, 139.980 129 C 140.416 129, 141.063 130.937, 141.418 133.304 C 142.174 138.346, 149.056 146.952, 153.955 148.981 C 155.630 149.675, 157 150.691, 157 151.238 C 157 151.785, 157.989 151.975, 159.198 151.658 C 160.407 151.342, 161.976 151.565, 162.684 152.153 C 165.616 154.586, 180.022 150.308, 187.254 144.856 C 191.763 141.457, 199 132.977, 199 131.093 C 199 130.492, 199.368 130, 199.817 130 C 201.415 130, 204.210 118.554, 204.194 112.078 C 204.176 104.793, 203.072 101.060, 199.946 97.724 C 198.401 96.075, 198.016 94.725, 198.454 92.500 C 198.779 90.850, 199.485 89.350, 200.023 89.167 C 201.686 88.599, 201.157 78.183, 199.314 75.215 C 193.555 65.938, 183.238 67.351, 183.427 77.390 C 183.505 81.546, 181.289 83.952, 177.091 84.268 C 175.940 84.355, 173.816 85.369, 172.371 86.521 C 170.007 88.406, 169.879 88.833, 171.094 90.779 C 171.837 91.968, 173.703 93.463, 175.240 94.100 C 177.823 95.169, 185.056 103, 183.462 103 C 183.073 103, 183.276 103.627, 183.912 104.394 C 184.548 105.161, 185.332 108.012, 185.654 110.729 C 186.381 116.868, 183.960 122.866, 178.593 128.217 C 170.622 136.166, 156.600 133.870, 156.600 124.616 C 156.600 118.274, 158.559 117.345, 167.301 119.539 C 169.259 120.031, 170.535 119.506, 172.917 117.229 C 174.613 115.609, 176 113.277, 176 112.046 C 176 108.727, 172.316 104.159, 168.278 102.472 C 163.715 100.565, 158.351 94.877, 157.512 91.053 C 156.512 86.503, 158.821 82.946, 165 79.516 C 172.198 75.521, 174.332 71.604, 173.454 64 C 172.047 51.806, 162.940 43, 151.736 43 C 147.166 43, 145.841 43.431, 143.636 45.636 M 213.750 60.080 C 212.787 60.641, 212 60.782, 212 60.394 C 212 60.006, 210.875 60.996, 209.500 62.594 C 204.910 67.930, 205.026 69.872, 211.098 89.399 C 212.334 93.372, 212.234 109.737, 210.935 116.201 C 208.314 129.242, 202.126 140.292, 191.389 151.104 C 184.068 158.476, 173.665 165.012, 167 166.428 C 163.177 167.239, 157.847 170.870, 157.277 173.050 C 156.996 174.123, 156.369 175, 155.883 175 C 152.942 175, 158.507 182.109, 163.334 184.517 C 166.686 186.189, 179 186.569, 179 185 C 179 184.450, 179.939 184, 181.088 184 C 183.147 184, 194.924 177.889, 197.945 175.253 C 201.234 172.384, 212.574 161.199, 214.045 159.372 C 217.402 155.208, 221.762 148.384, 222.430 146.250 C 222.818 145.012, 223.554 144, 224.067 144 C 224.580 144, 225 143.127, 225 142.059 C 225 140.991, 225.415 139.861, 225.923 139.548 C 226.431 139.234, 227.142 137.632, 227.503 135.989 C 227.864 134.345, 228.593 133, 229.123 133 C 229.654 133, 229.997 132.438, 229.886 131.750 C 229.775 131.063, 229.951 129.825, 230.276 129 C 231.434 126.063, 233 116.839, 233 112.951 C 233 110.778, 233.450 109, 234 109 C 234.554 109, 235 106.353, 235 103.059 C 235 99.791, 234.550 96.840, 234 96.500 C 233.450 96.160, 233 94.409, 233 92.608 C 233 89.216, 231.243 78.630, 230.243 76 C 229.929 75.175, 229.615 74.275, 229.544 74 C 228.636 70.467, 224.615 63.854, 222.075 61.717 C 218.648 58.833, 216.587 58.428, 213.750 60.080 M 97.605 196.490 C 91.950 201.731, 94.232 212.218, 101.311 213.517 C 103.065 213.839, 119.877 213.967, 138.671 213.801 L 172.841 213.500 175.319 211.171 C 176.681 209.891, 178.015 207.416, 178.283 205.671 C 178.881 201.771, 176.654 196, 174.551 196 C 173.698 196, 173 195.662, 173 195.250 C 173 194.838, 156.593 194.432, 136.539 194.349 L 100.079 194.198 97.605 196.490 M 97.317 226.341 C 92.755 230.853, 93.700 237.259, 99.615 241.912 C 101.950 243.749, 103.625 244, 113.528 244 C 126.354 244, 126 243.753, 126 252.714 C 126 257.782, 126.310 258.556, 129.571 261.632 C 134.875 266.634, 139.104 266.109, 144.893 259.729 C 145.891 258.629, 146.689 255.408, 147 251.229 L 147.500 244.500 159.687 244 C 171.504 243.515, 171.966 243.411, 174.937 240.563 C 178.968 236.698, 179.294 229.759, 175.608 226.266 C 173.253 224.034, 173.218 224.032, 136.376 224.107 C 99.986 224.181, 99.471 224.211, 97.317 226.341" stroke="none" fill="#f35b23" fill-rule="evenodd"/></svg>